# xmcd CD database file
#
# Track frame offsets:
#	150
#	18286
#	42104
#	58199
#	81879
#	110503
#	136871
#	162910
#	198624
#	219756
#	241980
#	265703
#	286170
#
# Disc length: 3911 seconds
#
# Revision: 1
# Processed by: cddbd v1.4PL0 Copyright (c) Steve Scherf et al.
# Submitted via: NeoAudio 9.9.9
#
DISCID=ad0f450d
DTITLE=Norman Hedman's Tropique - Taken By Surprise
DYEAR=2000
DGENRE=Jazz+Funk
TTITLE0=That Unpredictable Eugene
TTITLE1=Pa' Bailar
TTITLE2=Taken By Surprise
TTITLE3=Rudy's Mambo
TTITLE4=Felicidad
TTITLE5=Soft Serenade
TTITLE6=Can't Sell a Sceret
TTITLE7=Light At The End Of The Tunnel
TTITLE8=The One Left Behind
TTITLE9=Just For Ruby
TTITLE10=Maurice
TTITLE11=Rags To Riches
TTITLE12=The Massage
EXTD=YEAR: 2000
EXTT0=
EXTT1=
EXTT2=
EXTT3=
EXTT4=
EXTT5=
EXTT6=
EXTT7=
EXTT8=
EXTT9=
EXTT10=
EXTT11=
EXTT12=
PLAYORDER=
